<svg width="113" height="22" viewBox="0 0 113 22" fill="none" xmlns="http://www.w3.org/2000/svg">
<path d="M17.7874 0.668945V21.0326H14.0687L5.20931 8.21582H5.06016V21.0326H0.754761V0.668945H4.53317L13.3229 13.4758H13.5019V0.668945H17.7874Z" fill="#263238"/>
<path d="M28.2253 21.3309C26.6543 21.3309 25.302 21.0127 24.1685 20.3763C23.0416 19.7333 22.1732 18.8252 21.5634 17.6519C20.9535 16.472 20.6486 15.0766 20.6486 13.4658C20.6486 11.8948 20.9535 10.516 21.5634 9.32946C22.1732 8.1429 23.0316 7.21819 24.1386 6.55531C25.2523 5.89243 26.5581 5.56099 28.0563 5.56099C29.0638 5.56099 30.0018 5.7234 30.8702 6.04821C31.7452 6.36639 32.5075 6.84698 33.1571 7.48997C33.8134 8.13296 34.3238 8.94167 34.6884 9.9161C35.0529 10.8839 35.2352 12.0174 35.2352 13.3167V14.48H22.3389V11.855H31.248C31.248 11.2452 31.1154 10.7049 30.8503 10.2343C30.5851 9.76364 30.2172 9.39574 29.7466 9.13059C29.2826 8.85881 28.7423 8.72292 28.1259 8.72292C27.4829 8.72292 26.9128 8.87207 26.4156 9.17037C25.9251 9.46203 25.5406 9.85645 25.2622 10.3536C24.9838 10.8441 24.8413 11.391 24.8347 11.9942V14.49C24.8347 15.2457 24.9739 15.8986 25.2523 16.4488C25.5373 16.999 25.9384 17.4232 26.4554 17.7215C26.9724 18.0198 27.5856 18.1689 28.2949 18.1689C28.7655 18.1689 29.1964 18.1027 29.5875 17.9701C29.9786 17.8375 30.3134 17.6386 30.5918 17.3735C30.8702 17.1083 31.0823 16.7835 31.2281 16.3991L35.1457 16.6576C34.9469 17.5989 34.5392 18.4208 33.9227 19.1235C33.3129 19.8195 32.5241 20.3631 31.5563 20.7542C30.5951 21.1386 29.4848 21.3309 28.2253 21.3309Z" fill="#263238"/>
<path d="M41.2658 5.75985L44.0697 11.0993L46.9433 5.75985H51.2885L46.8638 13.3962L51.4078 21.0326H47.0825L44.0697 15.7528L41.1067 21.0326H36.7317L41.2658 13.3962L36.8908 5.75985H41.2658Z" fill="#263238"/>
<path d="M60.1578 21.3309C58.5934 21.3309 57.2478 20.9994 56.1209 20.3366C55.0006 19.6671 54.1389 18.739 53.5357 17.5525C52.9391 16.3659 52.6408 15.0004 52.6408 13.4559C52.6408 11.8915 52.9424 10.5193 53.5456 9.3394C54.1554 8.15285 55.0205 7.22813 56.1408 6.56525C57.261 5.89574 58.5934 5.56099 60.1379 5.56099C61.4703 5.56099 62.637 5.80294 63.6379 6.28684C64.6389 6.77074 65.431 7.4502 66.0143 8.3252C66.5977 9.2002 66.9192 10.2277 66.9788 11.4076H62.9817C62.869 10.6453 62.5707 10.0321 62.0868 9.56809C61.6095 9.09745 60.9831 8.86213 60.2075 8.86213C59.5513 8.86213 58.9779 9.0411 58.4874 9.39906C58.0035 9.75038 57.6256 10.2641 57.3538 10.9403C57.0821 11.6164 56.9462 12.435 56.9462 13.3962C56.9462 14.3707 57.0787 15.1992 57.3439 15.882C57.6157 16.5648 57.9968 17.0851 58.4874 17.4431C58.9779 17.801 59.5513 17.98 60.2075 17.98C60.6914 17.98 61.1256 17.8806 61.5101 17.6817C61.9012 17.4829 62.2227 17.1945 62.4746 16.8167C62.7331 16.4322 62.9021 15.9715 62.9817 15.4346H66.9788C66.9126 16.6012 66.5944 17.6287 66.0243 18.517C65.4608 19.3986 64.682 20.088 63.6876 20.5851C62.6933 21.0823 61.5167 21.3309 60.1578 21.3309Z" fill="#263238"/>
<path d="M76.6511 21.3309C75.08 21.3309 73.7278 21.0127 72.5942 20.3763C71.4674 19.7333 70.599 18.8252 69.9891 17.6519C69.3793 16.472 69.0744 15.0766 69.0744 13.4658C69.0744 11.8948 69.3793 10.516 69.9891 9.32946C70.599 8.1429 71.4574 7.21819 72.5644 6.55531C73.6781 5.89243 74.9839 5.56099 76.482 5.56099C77.4896 5.56099 78.4276 5.7234 79.296 6.04821C80.171 6.36639 80.9333 6.84698 81.5829 7.48997C82.2391 8.13296 82.7495 8.94167 83.1141 9.9161C83.4787 10.8839 83.661 12.0174 83.661 13.3167V14.48H70.7647V11.855H79.6738C79.6738 11.2452 79.5412 10.7049 79.2761 10.2343C79.0109 9.76364 78.643 9.39574 78.1724 9.13059C77.7084 8.85881 77.1681 8.72292 76.5516 8.72292C75.9086 8.72292 75.3386 8.87207 74.8414 9.17037C74.3509 9.46203 73.9664 9.85645 73.688 10.3536C73.4096 10.8441 73.2671 11.391 73.2604 11.9942V14.49C73.2604 15.2457 73.3996 15.8986 73.6781 16.4488C73.9631 16.999 74.3641 17.4232 74.8812 17.7215C75.3982 18.0198 76.0114 18.1689 76.7207 18.1689C77.1913 18.1689 77.6222 18.1027 78.0133 17.9701C78.4044 17.8375 78.7391 17.6386 79.0175 17.3735C79.296 17.1083 79.5081 16.7835 79.6539 16.3991L83.5715 16.6576C83.3727 17.5989 82.965 18.4208 82.3485 19.1235C81.7387 19.8195 80.9498 20.3631 79.982 20.7542C79.0209 21.1386 77.9105 21.3309 76.6511 21.3309Z" fill="#263238"/>
<path d="M90.661 12.203V21.0326H86.4252V5.75985H90.4621V8.45446H90.6411C90.9792 7.5662 91.546 6.86355 92.3414 6.3465C93.1369 5.82283 94.1013 5.56099 95.2349 5.56099C96.2955 5.56099 97.2202 5.793 98.009 6.25701C98.7978 6.72103 99.411 7.38391 99.8485 8.24565C100.286 9.10076 100.505 10.1216 100.505 11.3082V21.0326H96.269V12.0638C96.2756 11.1292 96.037 10.4 95.5531 9.87633C95.0692 9.34603 94.403 9.08088 93.5545 9.08088C92.9844 9.08088 92.4806 9.20351 92.0431 9.44878C91.6122 9.69404 91.2742 10.052 91.0289 10.5226C90.7903 10.9867 90.6676 11.5468 90.661 12.203Z" fill="#263238"/>
<path d="M111.967 5.75985V8.94167H102.769V5.75985H111.967ZM104.857 2.10076H109.093V16.3394C109.093 16.7305 109.153 17.0354 109.272 17.2542C109.391 17.4663 109.557 17.6154 109.769 17.7016C109.988 17.7878 110.24 17.8309 110.525 17.8309C110.724 17.8309 110.923 17.8143 111.122 17.7812C111.32 17.7414 111.473 17.7116 111.579 17.6917L112.245 20.8437C112.033 20.91 111.735 20.9862 111.35 21.0724C110.966 21.1652 110.498 21.2215 109.948 21.2414C108.927 21.2812 108.033 21.1453 107.264 20.8337C106.501 20.5222 105.908 20.0383 105.484 19.382C105.06 18.7258 104.851 17.8972 104.857 16.8962V2.10076Z" fill="#263238"/>
</svg>
