<svg width="33" height="32" viewBox="0 0 33 32" fill="none" xmlns="http://www.w3.org/2000/svg">
<path fill-rule="evenodd" clip-rule="evenodd" d="M0.5 16C0.5 7.16344 7.66344 0 16.5 0C25.3366 0 32.5 7.16344 32.5 16C32.5 24.8366 25.3366 32 16.5 32C7.66344 32 0.5 24.8366 0.5 16Z" fill="#3B464C"/>
<path fill-rule="evenodd" clip-rule="evenodd" d="M16.5 8.75C12.4959 8.75 9.25 11.9959 9.25 16C9.25 18.6786 10.7026 21.0179 12.863 22.2731L15.8036 14.9215C15.9575 14.5369 16.394 14.3498 16.7785 14.5036C17.1631 14.6575 17.3502 15.094 17.1964 15.4785L15.725 19.1571C16.2828 19.2942 16.8706 19.2818 17.4277 19.116C18.1691 18.8953 18.8076 18.4174 19.2282 17.7682C19.6489 17.119 19.8241 16.341 19.7225 15.5741C19.6209 14.8072 19.2491 14.1017 18.6739 13.5844C18.0987 13.0672 17.3578 12.772 16.5845 12.7521C15.8112 12.7321 15.0561 12.9887 14.455 13.4756C13.8539 13.9625 13.4461 14.6479 13.3051 15.4085C13.1641 16.1691 13.299 16.9551 13.6856 17.6252C13.8926 17.984 13.7696 18.4426 13.4108 18.6496C13.052 18.8566 12.5934 18.7336 12.3864 18.3748C11.8213 17.3955 11.6242 16.2468 11.8303 15.1351C12.0364 14.0234 12.6323 13.0217 13.5108 12.31C14.3893 11.5984 15.4929 11.2234 16.6232 11.2526C17.7534 11.2817 18.8362 11.7131 19.6769 12.4691C20.5176 13.2251 21.061 14.2562 21.2095 15.3771C21.358 16.4979 21.1019 17.635 20.4871 18.5838C19.8723 19.5327 18.9392 20.2312 17.8556 20.5537C16.9735 20.8162 16.0388 20.8156 15.1641 20.5591L14.2324 22.8883C14.9458 23.123 15.7081 23.25 16.5 23.25C20.5041 23.25 23.75 20.0041 23.75 16C23.75 11.9959 20.5041 8.75 16.5 8.75ZM7.75 16C7.75 11.1675 11.6675 7.25 16.5 7.25C21.3325 7.25 25.25 11.1675 25.25 16C25.25 20.8325 21.3325 24.75 16.5 24.75C11.6675 24.75 7.75 20.8325 7.75 16Z" fill="white"/>
</svg>
