<svg width="33" height="32" viewBox="0 0 33 32" fill="none" xmlns="http://www.w3.org/2000/svg">
<path fill-rule="evenodd" clip-rule="evenodd" d="M0.5 16C0.5 7.16344 7.66344 0 16.5 0C25.3366 0 32.5 7.16344 32.5 16C32.5 24.8366 25.3366 32 16.5 32C7.66344 32 0.5 24.8366 0.5 16Z" fill="#3B464C"/>
<path d="M13.365 9.00009C14.1157 9.00009 14.8053 9.20309 15.434 9.60909C15.7587 9.52909 16.1443 9.48876 16.591 9.48809C18.437 9.48809 20.0093 10.1574 21.308 11.4961C22.6067 12.8348 23.256 14.4581 23.256 16.3661C23.256 16.8321 23.2053 17.3191 23.104 17.8271C23.368 18.4164 23.5 19.0144 23.5 19.6211C23.5 20.7184 23.1193 21.6568 22.358 22.4361C21.598 23.2174 20.6897 23.6084 19.633 23.6091C18.9927 23.6071 18.3639 23.4389 17.808 23.1211C17.2813 23.2024 16.8757 23.2431 16.591 23.2431C14.7443 23.2431 13.1667 22.5734 11.858 21.2341C9.895 19.2251 9.895 18.2721 9.895 16.3661C9.895 15.9194 9.94567 15.4628 10.047 14.9961C9.68068 14.3796 9.49141 13.6741 9.5 12.9571C9.5 11.8611 9.87533 10.9281 10.626 10.1581C11.3767 9.38609 12.2897 9.00009 13.365 9.00009ZM16.5 19.5301C16.0953 19.5301 15.7703 19.4691 15.525 19.3471C15.2623 19.2051 15.08 19.0634 14.978 18.9221C14.7347 18.4748 14.6027 18.2414 14.582 18.2221C14.5111 17.9929 14.3863 17.7841 14.218 17.6131C14.0415 17.4809 13.8284 17.4065 13.608 17.4001C13.4788 17.3957 13.3501 17.4178 13.2297 17.4649C13.1094 17.512 12.9999 17.5832 12.908 17.6741C12.8209 17.756 12.7515 17.8551 12.7044 17.965C12.6572 18.075 12.6333 18.1935 12.634 18.3131C12.6347 18.6984 12.7773 19.1144 13.062 19.5611C13.3253 19.9671 13.6907 20.3014 14.158 20.5641C14.806 20.9101 15.6073 21.0831 16.562 21.0831C17.352 21.0831 18.052 20.9614 18.662 20.7181C19.2707 20.4341 19.717 20.0791 20.001 19.6531C20.305 19.1858 20.457 18.6784 20.457 18.1311C20.457 17.6858 20.3763 17.2801 20.215 16.9141C20.0523 16.6094 19.7983 16.3361 19.453 16.0941C19.0883 15.8707 18.7008 15.687 18.297 15.5461C17.8147 15.3974 17.3274 15.2653 16.836 15.1501C16.6568 15.1225 16.479 15.0868 16.303 15.0431L15.893 14.9371C15.7141 14.8827 15.5407 14.8117 15.375 14.7251C15.2169 14.648 15.0808 14.5325 14.979 14.3891C14.9278 14.3371 14.8878 14.2751 14.8617 14.207C14.8355 14.1388 14.8237 14.066 14.827 13.9931C14.827 13.7504 14.969 13.5374 15.253 13.3541C15.517 13.1508 15.9023 13.0491 16.409 13.0491C16.917 13.0491 17.2927 13.1401 17.536 13.3221C17.7993 13.5468 17.9917 13.8008 18.113 14.0841C18.2763 14.3481 18.4083 14.5304 18.509 14.6311C18.6757 14.7553 18.8792 14.8201 19.087 14.8151C19.2183 14.8152 19.3483 14.788 19.4686 14.7354C19.5889 14.6827 19.697 14.6056 19.786 14.5091C19.8756 14.4227 19.9463 14.3186 19.9937 14.2034C20.041 14.0883 20.0639 13.9646 20.061 13.8401C20.061 13.6374 19.9897 13.3738 19.847 13.0491C19.6643 12.7811 19.4498 12.5363 19.208 12.3201C18.924 12.0961 18.5483 11.9031 18.081 11.7411C17.5765 11.5964 17.0538 11.5247 16.529 11.5281C15.799 11.5274 15.1497 11.6391 14.581 11.8631C14.0143 12.0638 13.5787 12.3674 13.274 12.7741C12.9703 13.177 12.8095 13.6696 12.817 14.1741C12.817 14.7008 12.959 15.1574 13.243 15.5441C13.5883 15.9488 13.9737 16.2324 14.399 16.3951C14.8863 16.6191 15.475 16.8018 16.165 16.9431C16.287 16.9638 16.434 16.9991 16.606 17.0491L17.063 17.1721L17.382 17.2471C17.666 17.3491 17.899 17.4914 18.081 17.6741C18.2637 17.8148 18.355 18.0278 18.355 18.3131C18.355 18.6584 18.193 18.9428 17.869 19.1661C17.505 19.4088 17.0487 19.5301 16.5 19.5301ZM13.365 7.00009C11.756 7.00009 10.312 7.61009 9.191 8.76509C8.086 9.89909 7.5 11.3501 7.5 12.9571C7.5 13.7891 7.656 14.5761 7.966 15.3051C7.91912 15.6571 7.89573 16.0119 7.896 16.3671C7.896 18.8051 8.749 20.9141 10.428 22.6341C12.121 24.3661 14.196 25.2441 16.592 25.2441C16.846 25.2441 17.139 25.2241 17.488 25.1841C18.178 25.4671 18.897 25.6101 19.634 25.6101C21.222 25.6101 22.659 24.9961 23.791 23.8331C24.3401 23.279 24.7739 22.6215 25.0672 21.8987C25.3606 21.1759 25.5077 20.4021 25.5 19.6221C25.5 18.9451 25.389 18.2731 25.168 17.6181C25.2267 17.2037 25.2565 16.7857 25.257 16.3671C25.257 13.9301 24.411 11.8231 22.744 10.1041C21.059 8.36909 18.989 7.48909 16.592 7.48909C16.3245 7.48836 16.0572 7.50104 15.791 7.52709C15.0309 7.17531 14.2026 6.99538 13.365 7.00009Z" fill="white"/>
</svg>
