<svg width="33" height="32" viewBox="0 0 33 32" fill="none" xmlns="http://www.w3.org/2000/svg">
<path fill-rule="evenodd" clip-rule="evenodd" d="M0.5 16C0.5 7.16344 7.66344 0 16.5 0C25.3366 0 32.5 7.16344 32.5 16C32.5 24.8366 25.3366 32 16.5 32C7.66344 32 0.5 24.8366 0.5 16Z" fill="#3B464C"/>
<path fill-rule="evenodd" clip-rule="evenodd" d="M23.1677 10.4996C23.9021 10.7011 24.4804 11.2948 24.6767 12.0488C25.0333 13.4154 25.0333 16.2667 25.0333 16.2667C25.0333 16.2667 25.0333 19.1179 24.6767 20.4845C24.4804 21.2386 23.9021 21.8323 23.1677 22.0339C21.8369 22.4 16.5 22.4 16.5 22.4C16.5 22.4 11.1631 22.4 9.83218 22.0339C9.09783 21.8323 8.5195 21.2386 8.32323 20.4845C7.96667 19.1179 7.96667 16.2667 7.96667 16.2667C7.96667 16.2667 7.96667 13.4154 8.32323 12.0488C8.5195 11.2948 9.09783 10.7011 9.83218 10.4996C11.1631 10.1334 16.5 10.1334 16.5 10.1334C16.5 10.1334 21.8369 10.1334 23.1677 10.4996ZM14.9 13.8666V19.2L19.1667 16.5334L14.9 13.8666Z" fill="white"/>
</svg>
